<?xml version="1.0" encoding="UTF-8" standalone="no"?>
<!-- Created with Inkscape (http://www.inkscape.org/) -->

<svg
   xmlns:dc="http://purl.org/dc/elements/1.1/"
   xmlns:cc="http://creativecommons.org/ns#"
   xmlns:rdf="http://www.w3.org/1999/02/22-rdf-syntax-ns#"
   xmlns:svg="http://www.w3.org/2000/svg"
   xmlns="http://www.w3.org/2000/svg"
   xmlns:sodipodi="http://sodipodi.sourceforge.net/DTD/sodipodi-0.dtd"
   xmlns:inkscape="http://www.inkscape.org/namespaces/inkscape"
   width="744.09448819"
   height="1052.3622047"
   id="svg2"
   version="1.1"
   inkscape:version="0.48.5 r10040"
   sodipodi:docname="New document 1">
  <defs
     id="defs4" />
  <sodipodi:namedview
     id="base"
     pagecolor="#ffffff"
     bordercolor="#666666"
     borderopacity="1.0"
     inkscape:pageopacity="0.0"
     inkscape:pageshadow="2"
     inkscape:zoom="45.254834"
     inkscape:cx="252.26456"
     inkscape:cy="523.31908"
     inkscape:document-units="px"
     inkscape:current-layer="layer1"
     showgrid="true"
     inkscape:window-width="1920"
     inkscape:window-height="1031"
     inkscape:window-x="0"
     inkscape:window-y="25"
     inkscape:window-maximized="1">
    <inkscape:grid
       type="xygrid"
       id="grid2985" />
  </sodipodi:namedview>
  <metadata
     id="metadata7">
    <rdf:RDF>
      <cc:Work
         rdf:about="">
        <dc:format>image/svg+xml</dc:format>
        <dc:type
           rdf:resource="http://purl.org/dc/dcmitype/StillImage" />
        <dc:title></dc:title>
      </cc:Work>
    </rdf:RDF>
  </metadata>
  <g
     inkscape:label="Layer 1"
     inkscape:groupmode="layer"
     id="layer1">
    <rect
       style="fill:#ff6600;fill-opacity:1;stroke:none"
       id="rect2987"
       width="16"
       height="16"
       x="245"
       y="521.36218"
       inkscape:export-filename="/home/jared/clone/nm/ci/static/favicon.png"
       inkscape:export-xdpi="90"
       inkscape:export-ydpi="90" />
    <path
       sodipodi:type="arc"
       style="fill:#ffffff;fill-opacity:1;stroke:#338000"
       id="path2989"
       sodipodi:cx="295"
       sodipodi:cy="487.36218"
       sodipodi:rx="35"
       sodipodi:ry="35"
       d="m 330,487.36218 a 35,35 0 1 1 -70,0 35,35 0 1 1 70,0 z" />
    <g
       id="g2999">
      <rect
         style="fill:#ff6600;fill-opacity:1;stroke:#338000"
         id="rect2993"
         width="100"
         height="100"
         x="555"
         y="442.36218" />
      <path
         transform="translate(310,5.0000026)"
         sodipodi:type="arc"
         style="fill:#ffffff;fill-opacity:1;stroke:#338000"
         id="path2995"
         sodipodi:cx="295"
         sodipodi:cy="487.36218"
         sodipodi:rx="35"
         sodipodi:ry="35"
         d="m 330,487.36218 a 35,35 0 1 1 -70,0 35,35 0 1 1 70,0 z" />
      <path
         style="fill:none;stroke:#000000;stroke-width:1px;stroke-linecap:butt;stroke-linejoin:miter;stroke-opacity:1"
         d="m 580,517.36218 -15,25 20,-20 -5,20 15,-15 0,15 10,-15 10,15 0,-15 15,15 -5,-20 20,20 -15,-25 25,15 -20,-20 20,5 -15,-15 15,0 -15,-10 15,-10 -15,0 15,-15 -20,5 20,-20 -25,15 15,-25 -20,20 5,-20 -15,15 0,-15 -10,15 -10,-15 0,15 -15,-15 5,20 -20,-20 15,25 -25,-15 20,20 -20,-5 15,15 -15,0 15,10 -15,10 15,0 -15,15 20,-5 -20,20 z"
         id="path2997"
         inkscape:connector-curvature="0"
         sodipodi:nodetypes="ccccccccccccccccccccccccccccccccccccccccccccccccc" />
    </g>
    <path
       style="fill:#ff0000;stroke:none;stroke-width:1px;stroke-linecap:butt;stroke-linejoin:miter;stroke-opacity:1"
       d="m 245,521.36218 10,0 -4,16 -6,0 z"
       id="path3004"
       inkscape:connector-curvature="0"
       inkscape:export-filename="/home/jared/clone/nm/ci/static/favicon.png"
       inkscape:export-xdpi="90"
       inkscape:export-ydpi="90" />
  </g>
</svg>
